{"title":"The.Brass.Teapot.2012 BRRip XViD juggs","uid":8528956,"size":751700379,"categoryP":"video","categoryS":"movies","magnet":"?xt=urn:btih:e50ff5f4bdc36dbb3e1e2603176bedabd02215a7&amp;dn=The.Brass.Teapot.2012+BRRip+XViD+juggs&amp;tr=udp%3A%2F%2Ftracker.openbittorrent.com%3A80&amp;tr=udp%3A%2F%2Fopen.demonii.com%3A1337&amp;tr=udp%3A%2F%2Ftracker.coppersurfer.tk%3A6969&amp;tr=udp%3A%2F%2Fexodus.desync.com%3A6969","seeders":14,"leechers":2,"uploader":"juggs99","files":3,"time":1370096236,"description":"Source : GECKOS(Thanks)\n &lt;a href=&quot;\nhttp://www.imdb.com/title/tt1935902/&quot; rel=&quot;nofollow&quot; target=&quot;_NEW&quot;&gt;\nhttp://www.imdb.com/title/tt1935902/&lt;/a&gt;\n\nFormat : AVI\nFormat/Info : Audio Video Interleave\nFile size : 700 MiB\nDuration : 1h 41mn\nOverall bit rate : 964 Kbps\nWriting library : VirtualDub build 32842/release\n\nVideo\nID : 0\nFormat : MPEG-4 Visual\nFormat profile : Advanced Simple@L5\nFormat settings, BVOP : 2\nFormat settings, QPel : No\nFormat settings, GMC : No warppoints\nFormat settings, Matrix : Default (H.263)\nMuxing mode : Packed bitstream\nCodec ID : XVID\nCodec ID/Hint : XviD\nDuration : 1h 41mn\nBit rate : 827 Kbps\nWidth : 640 pixels\nHeight : 272 pixels\nDisplay aspect ratio : 2.35:1\nFrame rate : 23.976 fps\nColor space : YUV\nChroma subsampling : 4:2:0\nBit depth : 8 bits\nScan type : Progressive\nCompression mode : Lossy\nBits/(Pixel*Frame) : 0.198\nStream size : 600 MiB (86%)\nWriting library : XviD 64\n\nAudio\nID : 1\nFormat : MPEG Audio\nFormat version : Version 1\nFormat profile : Layer 3\nMode : Joint stereo\nMode extension : MS Stereo\nCodec ID : 55\nCodec ID/Hint : MP3\nDuration : 1h 41mn\nBit rate mode : Constant\nBit rate : 128 Kbps\nChannel(s) : 2 channels\nSampling rate : 44.1 KHz\nCompression mode : Lossy\nStream size : 92.9 MiB (13%)\nAlignment : Split accross interleaves\nInterleave, duration : 42 ms (1.00 video frame)\nInterleave, preload duration : 500 ms\nWriting library : LAME3.98\n\nPlot\nWhen a couple discovers that a brass teapot makes them money whenever they hurt themselves, they must come to terms with how far they are willing to go.\n &lt;a href=&quot;\nhttp://www.shotpix.com/images/05428359878019788807.png&quot; rel=&quot;nofollow&quot; target=&quot;_NEW&quot;&gt;\nhttp://www.shotpix.com/images/05428359878019788807.png&lt;/a&gt; &lt;a href=&quot;\nhttp://www.shotpix.com/images/59898043598837199066.png&quot; rel=&quot;nofollow&quot; target=&quot;_NEW&quot;&gt;\nhttp://www.shotpix.com/images/59898043598837199066.png&lt;/a&gt; &lt;a href=&quot;\nhttp://www.shotpix.com/images/52295235067850402790.png&quot; rel=&quot;nofollow&quot; target=&quot;_NEW&quot;&gt;\nhttp://www.shotpix.com/images/52295235067850402790.png&lt;/a&gt;","torrent":{"xt":"urn:btih:e50ff5f4bdc36dbb3e1e2603176bedabd02215a7","amp;dn":"The.Brass.Teapot.2012+BRRip+XViD+juggs","amp;tr":["udp%3A%2F%2Ftracker.openbittorrent.com%3A80","udp%3A%2F%2Fopen.demonii.com%3A1337","udp%3A%2F%2Ftracker.coppersurfer.tk%3A6969","udp%3A%2F%2Fexodus.desync.com%3A6969"],"infoHash":"e50ff5f4bdc36dbb3e1e2603176bedabd02215a7","infoHashBuffer":{"type":"Buffer","data":[229,15,245,244,189,195,109,187,62,30,38,3,23,107,237,171,208,34,21,167]},"announce":[],"urlList":[]}}